<svg width="130" height="130" viewBox="0 0 130 130" fill="none" xmlns="http://www.w3.org/2000/svg">
<path d="M34.142 72.2222C32.0368 72.2222 30.3334 73.9257 30.3334 76.0308V91.2652C30.3334 93.3703 32.0368 95.0738 34.142 95.0738C36.2471 95.0738 37.9506 93.3703 37.9506 91.2652V76.0308C37.9506 73.9257 36.2471 72.2222 34.142 72.2222Z" fill="#E6EFF0"/>
<path d="M83.2531 73.6667C81.1479 73.6667 79.4445 75.3701 79.4445 77.4753V92.7097C79.4445 94.8148 81.1479 96.5182 83.2531 96.5182C85.3582 96.5182 87.0616 94.8148 87.0616 92.7097V77.4753C87.0616 75.3701 85.3582 73.6667 83.2531 73.6667Z" fill="#E6EFF0"/>
<path d="M57.3828 0C72.9927 0 86.6577 9.37269 92.4747 23.6846C111.919 18.9574 130 34.5386 130 53.5742C130 70.3744 116.331 84.043 99.5312 84.043H91.6602H84.043H45.957H38.3398H23.1055C10.5044 84.043 0 73.7925 0 61.1914C0 49.8883 8.50332 40.2208 19.3007 38.4021C19.2969 38.2979 19.2969 38.19 19.2969 38.0859C19.2969 17.0866 36.3835 0 57.3828 0Z" fill="#B3B3B3"/>
<path d="M19.2969 91.6602C17.1917 91.6602 15.4883 93.3636 15.4883 95.4688V110.703C15.4883 112.808 17.1917 114.512 19.2969 114.512C21.402 114.512 23.1055 112.808 23.1055 110.703V95.4688C23.1055 93.3636 21.402 91.6602 19.2969 91.6602Z" fill="#E6EFF0"/>
<path d="M42.1484 106.895C40.0433 106.895 38.3398 108.598 38.3398 110.703V126.191C38.3398 128.297 40.0433 130 42.1484 130C44.2536 130 45.957 128.297 45.957 126.191V110.703C45.957 108.598 44.2536 106.895 42.1484 106.895Z" fill="#E6EFF0"/>
<path d="M65 91.6602C62.8949 91.6602 61.1914 93.3636 61.1914 95.4688V110.703C61.1914 112.808 62.8949 114.512 65 114.512C67.1051 114.512 68.8086 112.808 68.8086 110.703V95.4688C68.8086 93.3636 67.1051 91.6602 65 91.6602Z" fill="#E6EFF0"/>
<path d="M87.8516 106.895C85.7464 106.895 84.043 108.598 84.043 110.703V126.191C84.043 128.297 85.7464 130 87.8516 130C89.9567 130 91.6602 128.297 91.6602 126.191V110.703C91.6602 108.598 89.9567 106.895 87.8516 106.895Z" fill="#E6EFF0"/>
<path d="M110.703 91.6602C108.598 91.6602 106.895 93.3636 106.895 95.4688V110.703C106.895 112.808 108.598 114.512 110.703 114.512C112.808 114.512 114.512 112.808 114.512 110.703V95.4688C114.512 93.3636 112.808 91.6602 110.703 91.6602Z" fill="#E6EFF0"/>
</svg>
